# xmcd
#
# Track frame offsets:
#      150
#      15474
#      33147
#      44642
#      58534
#      72650
#      83865
#      96091
#      110048
#      119887
#      137476
# 
# Disc length: 1970 seconds
#
# Revision: 3
# Processed by: cddbd v1.4PL0 Copyright (c) Steve Scherf et al.
#
# Submitted via: FreeRIP 1.21
#
DISCID=9b07b00b
DTITLE=Merle Haggard - Kern River
DYEAR=1985
DGENRE=Country
TTITLE0=Merle Haggard-Kern River-'85-Kern River
TTITLE1=Merle Haggard-Old Flames Can't Hold A Candle To You-'85-Kern River
TTITLE2=Merle Haggard-There I've Said It Again-'85-Kern River
TTITLE3=Merle Haggard-You Don't Love Me Anymore-'85 Kern River
TTITLE4=Merle Haggard-Natural High-'85-Kern River
TTITLE5=Merle Haggard-Big Butter And Egg Man-'85-Kern River
TTITLE6=Merle Haggard-Ridin' High-'85-Kern River
TTITLE7=Merle Haggard-There's Somebody Else On Your Mind-'85-Kern River
TTITLE8=Merle Haggard-I Wonder Where I'll Find You Tonight-'85-Kern River
TTITLE9=Merle Haggard-There Won't Be Another Now-'85-Kern River
TTITLE10=Merle Haggard-The Old Watermill-'85-Kern River
EXTD=
EXTT0=
EXTT1=
EXTT2=
EXTT3=
EXTT4=
EXTT5=
EXTT6=
EXTT7=
EXTT8=
EXTT9=
EXTT10=
PLAYORDER=
